<svg width="191" height="34" viewBox="0 0 191 34" fill="none" xmlns="http://www.w3.org/2000/svg">
<path d="M35.9886 27H28.7699V6.63636H36.0483C38.0966 6.63636 39.8598 7.04403 41.3381 7.85938C42.8163 8.66809 43.9531 9.83144 44.7486 11.3494C45.5507 12.8674 45.9517 14.6837 45.9517 16.7983C45.9517 18.9195 45.5507 20.7424 44.7486 22.267C43.9531 23.7917 42.8097 24.9616 41.3182 25.777C39.8333 26.5923 38.0568 27 35.9886 27ZM33.0753 23.3111H35.8097C37.0824 23.3111 38.1529 23.0857 39.0213 22.6349C39.8963 22.1776 40.5526 21.4716 40.9901 20.517C41.4342 19.5559 41.6562 18.3163 41.6562 16.7983C41.6562 15.2936 41.4342 14.0639 40.9901 13.1094C40.5526 12.1548 39.8996 11.4522 39.0312 11.0014C38.1629 10.5507 37.0923 10.3253 35.8196 10.3253H33.0753V23.3111ZM66.1737 6.63636V27H62.4549L53.5955 14.1832H53.4464V27H49.141V6.63636H52.9194L61.7092 19.4432H61.8881V6.63636H66.1737ZM87.6982 13.7656H83.343C83.2635 13.2022 83.1011 12.7017 82.8558 12.2642C82.6106 11.8201 82.2957 11.4422 81.9112 11.1307C81.5268 10.8191 81.0826 10.5805 80.5788 10.4148C80.0817 10.2491 79.5414 10.1662 78.9581 10.1662C77.9041 10.1662 76.986 10.428 76.2038 10.9517C75.4216 11.4687 74.8151 12.2244 74.3842 13.2188C73.9534 14.2064 73.7379 15.4062 73.7379 16.8182C73.7379 18.2699 73.9534 19.4896 74.3842 20.4773C74.8217 21.465 75.4316 22.2107 76.2138 22.7145C76.996 23.2183 77.9008 23.4702 78.9283 23.4702C79.505 23.4702 80.0386 23.3939 80.5291 23.2415C81.0263 23.089 81.4671 22.867 81.8516 22.5753C82.236 22.277 82.5542 21.9157 82.8061 21.4915C83.0646 21.0672 83.2436 20.5833 83.343 20.0398L87.6982 20.0597C87.5855 20.9943 87.3037 21.8958 86.853 22.7642C86.4089 23.6259 85.8089 24.3982 85.0533 25.081C84.3042 25.7571 83.4093 26.294 82.3686 26.6918C81.3345 27.0829 80.1645 27.2784 78.8587 27.2784C77.0424 27.2784 75.4183 26.8674 73.9865 26.0455C72.5613 25.2235 71.4344 24.0336 70.6058 22.4759C69.7839 20.9181 69.3729 19.0322 69.3729 16.8182C69.3729 14.5975 69.7905 12.7083 70.6257 11.1506C71.4609 9.5928 72.5945 8.40625 74.0263 7.59091C75.4581 6.76894 77.0689 6.35795 78.8587 6.35795C80.0386 6.35795 81.1323 6.52367 82.1399 6.85511C83.1541 7.18655 84.0523 7.67045 84.8345 8.30682C85.6167 8.93655 86.2531 9.70881 86.7436 10.6236C87.2408 11.5384 87.5589 12.5857 87.6982 13.7656ZM97.266 27V6.63636H101.502V14.2926H101.631C101.817 13.8816 102.085 13.464 102.436 13.0398C102.794 12.6089 103.258 12.2509 103.828 11.9659C104.405 11.6742 105.121 11.5284 105.976 11.5284C107.09 11.5284 108.117 11.8201 109.059 12.4034C110 12.9801 110.752 13.8518 111.316 15.0185C111.879 16.1785 112.161 17.6335 112.161 19.3835C112.161 21.0871 111.886 22.5256 111.336 23.6989C110.792 24.8655 110.05 25.7505 109.108 26.3537C108.174 26.9503 107.126 27.2486 105.966 27.2486C105.144 27.2486 104.445 27.1127 103.868 26.8409C103.298 26.5691 102.831 26.2277 102.466 25.8168C102.102 25.3991 101.823 24.9782 101.631 24.554H101.442V27H97.266ZM101.412 19.3636C101.412 20.2718 101.538 21.0639 101.79 21.7401C102.042 22.4162 102.407 22.9432 102.884 23.321C103.361 23.6922 103.941 23.8778 104.624 23.8778C105.313 23.8778 105.897 23.6889 106.374 23.3111C106.851 22.9266 107.212 22.3963 107.458 21.7202C107.71 21.0374 107.836 20.2519 107.836 19.3636C107.836 18.482 107.713 17.7064 107.468 17.0369C107.222 16.3674 106.861 15.8437 106.384 15.4659C105.907 15.0881 105.32 14.8991 104.624 14.8991C103.935 14.8991 103.351 15.0814 102.874 15.446C102.403 15.8106 102.042 16.3277 101.79 16.9972C101.538 17.6667 101.412 18.4555 101.412 19.3636ZM119.342 27.2884C118.368 27.2884 117.5 27.1193 116.737 26.7812C115.975 26.4366 115.372 25.9295 114.928 25.2599C114.49 24.5838 114.271 23.742 114.271 22.7344C114.271 21.8859 114.427 21.1733 114.739 20.5966C115.05 20.0199 115.474 19.5559 116.011 19.2045C116.548 18.8532 117.158 18.5881 117.841 18.4091C118.53 18.2301 119.253 18.1042 120.009 18.0312C120.897 17.9384 121.613 17.8523 122.156 17.7727C122.7 17.6866 123.094 17.5606 123.339 17.3949C123.585 17.2292 123.707 16.9839 123.707 16.6591V16.5994C123.707 15.9697 123.509 15.4825 123.111 15.1378C122.72 14.7931 122.163 14.6207 121.44 14.6207C120.678 14.6207 120.071 14.7898 119.621 15.1278C119.17 15.4593 118.872 15.8769 118.726 16.3807L114.808 16.0625C115.007 15.1345 115.398 14.3324 115.982 13.6562C116.565 12.9735 117.317 12.4498 118.239 12.0852C119.167 11.714 120.241 11.5284 121.46 11.5284C122.309 11.5284 123.121 11.6278 123.896 11.8267C124.679 12.0256 125.371 12.3338 125.974 12.7514C126.584 13.169 127.065 13.706 127.416 14.3622C127.768 15.0118 127.943 15.7907 127.943 16.6989V27H123.926V24.8821H123.807C123.562 25.3594 123.233 25.7803 122.822 26.1449C122.411 26.5028 121.918 26.7846 121.341 26.9901C120.764 27.1889 120.098 27.2884 119.342 27.2884ZM120.555 24.3651C121.179 24.3651 121.729 24.2424 122.206 23.9972C122.683 23.7453 123.058 23.4072 123.33 22.983C123.601 22.5587 123.737 22.0781 123.737 21.5412V19.9205C123.605 20.0066 123.422 20.0862 123.19 20.1591C122.965 20.2254 122.71 20.2884 122.425 20.348C122.14 20.401 121.855 20.4508 121.57 20.4972C121.285 20.5369 121.026 20.5734 120.794 20.6065C120.297 20.6795 119.863 20.7955 119.491 20.9545C119.12 21.1136 118.832 21.3291 118.626 21.6009C118.421 21.866 118.318 22.1974 118.318 22.5952C118.318 23.1719 118.527 23.6127 118.945 23.9176C119.369 24.2159 119.906 24.3651 120.555 24.3651ZM135.465 18.1705V27H131.229V11.7273H135.266V14.4219H135.445C135.783 13.5336 136.35 12.831 137.146 12.3139C137.941 11.7902 138.906 11.5284 140.039 11.5284C141.1 11.5284 142.024 11.7604 142.813 12.2244C143.602 12.6884 144.215 13.3513 144.653 14.2131C145.09 15.0682 145.309 16.089 145.309 17.2756V27H141.073V18.0312C141.08 17.0966 140.841 16.3674 140.357 15.8438C139.873 15.3134 139.207 15.0483 138.359 15.0483C137.789 15.0483 137.285 15.1709 136.847 15.4162C136.416 15.6615 136.078 16.0194 135.833 16.4901C135.594 16.9541 135.472 17.5142 135.465 18.1705ZM152.485 22.6051L152.495 17.5241H153.112L158.004 11.7273H162.866L156.294 19.4034H155.289L152.485 22.6051ZM148.647 27V6.63636H152.883V27H148.647ZM158.193 27L153.699 20.348L156.522 17.3551L163.154 27H158.193Z" fill="white"/>
</svg>
